<svg xmlns="http://www.w3.org/2000/svg" width="118.19" height="6"><path data-name="Фигура 1 копия 9" d="M.5 5.47l-.488-.81L8.46 0l.487.81zm15.194.52l.478-.82L7.897.41l-.478.82zm.413-.52l-.488-.81L24.067 0l.487.81zm15.194.52l.478-.82L23.504.41l-.478.82zm.413-.52l-.488-.81L39.674 0l.487.81zm15.194.52l.478-.82L39.111.41l-.478.82zm.413-.52l-.488-.81L55.28 0l.488.81zm15.194.52l.478-.82L54.718.41l-.478.82zm.413-.52l-.488-.81L70.887 0l.488.81zm15.194.52l.478-.82L70.325.41l-.478.82zm.412-.52l-.487-.81L86.5 0l.488.81zm15.2.52l.478-.82L85.936.41l-.477.82zm.412-.52l-.487-.81L102.104 0l.49.81zm15.2.52l.47-.82-8.27-4.76-.48.82zm.41-.52l-.49-.81 8.45-4.66.49.81zm7.4-5.06l-.48.82" fill="#df5f0b" fill-rule="evenodd"/></svg>